<?xml version="1.0" standalone="no"?>
<!DOCTYPE svg PUBLIC "-//W3C//DTD SVG 20010904//EN"
 "http://www.w3.org/TR/2001/REC-SVG-20010904/DTD/svg10.dtd">
<svg version="1.0" xmlns="http://www.w3.org/2000/svg"
 width="209pt" height="154pt" viewBox="0 0 209 154"
 preserveAspectRatio="xMidYMid meet">
<!-- Used https://convertio.co/download/0cd473832629ecce68011c70dc44e2dbb11a47/ to convert from PNG to SVG -->
<g transform="translate(0.000000,154.000000) scale(0.100000,-0.100000)"
fill="#952225" stroke="none">
<path d="M1518 1282 c-46 -47 -58 -65 -58 -90 0 -38 -9 -39 -108 -16 -292 69
-396 88 -537 99 -142 12 -333 -40 -416 -113 -20 -17 -48 -36 -63 -42 -22 -8
-28 -7 -32 8 -15 48 -50 75 -39 29 6 -23 4 -24 -31 -23 -32 1 -40 -4 -57 -32
-21 -35 -18 -70 9 -97 9 -9 23 -14 32 -10 26 10 42 -13 31 -43 -16 -40 -2
-145 31 -243 35 -101 35 -107 13 -154 -15 -31 -15 -40 -3 -73 8 -21 15 -89 17
-162 3 -113 5 -127 24 -142 43 -36 88 -12 74 39 -14 49 -8 194 8 210 12 13 16
12 30 -2 9 -8 19 -32 23 -53 22 -128 49 -172 107 -172 37 0 44 24 20 68 -26
46 -39 184 -23 227 6 16 18 61 26 98 17 84 40 126 74 134 14 4 95 -4 180 -17
85 -12 189 -27 230 -32 49 -7 80 -16 88 -27 15 -19 7 -268 -10 -314 -14 -36 4
-100 35 -122 32 -22 65 -19 69 7 4 31 23 33 36 3 10 -21 18 -25 57 -25 51 0
54 8 29 60 -22 44 -14 199 16 293 17 54 27 70 48 79 63 26 133 61 138 69 3 5
29 9 57 9 29 1 72 6 97 12 25 5 81 13 125 17 l80 6 32 55 c36 60 44 106 16 96
-30 -12 -88 40 -129 115 -42 78 -81 117 -125 126 -36 7 -44 17 -59 71 -6 24
-24 57 -41 74 -16 17 -29 37 -29 44 0 29 -36 12 -92 -44z m-1273 -202 c10 -16
-16 -43 -28 -31 -11 11 -2 41 12 41 5 0 13 -5 16 -10z"/>
</g>
</svg>
